<?xml version="1.0" standalone="no"?>
<!DOCTYPE svg PUBLIC "-//W3C//DTD SVG 20010904//EN"
 "http://www.w3.org/TR/2001/REC-SVG-20010904/DTD/svg10.dtd">
<svg version="1.0" xmlns="http://www.w3.org/2000/svg"
 width="612.000000pt" height="408.000000pt" viewBox="0 0 612.000000 408.000000"
 preserveAspectRatio="xMidYMid meet">

<g transform="translate(0.000000,408.000000) scale(0.100000,-0.100000)"
fill="#000000" stroke="none">
<path d="M2 3893 l3 -186 85 -24 c47 -13 114 -32 150 -43 36 -11 130 -38 210
-60 80 -23 166 -53 191 -67 83 -45 159 -143 159 -205 0 -16 4 -28 9 -28 5 0
11 -10 14 -22 2 -13 1 5 -1 40 -3 39 -1 62 6 62 5 0 13 36 17 80 4 44 10 80
15 80 4 0 10 28 14 61 3 34 10 67 15 73 5 6 19 41 31 79 13 37 27 67 31 67 5
0 9 9 9 19 0 10 6 21 13 24 8 3 22 30 31 61 10 31 22 56 27 56 9 0 42 33 77
74 6 8 12 22 12 31 0 13 -62 15 -560 15 l-560 0 2 -187z"/>
<path d="M4016 3968 c-3 -62 -9 -150 -13 -194 l-6 -82 -56 26 c-69 32 -247 47
-351 30 -60 -9 -164 -51 -201 -80 -21 -18 -103 -146 -143 -226 -19 -37 -44
-76 -56 -87 -32 -28 -49 -66 -43 -95 3 -17 -12 -57 -46 -124 -28 -55 -51 -111
-52 -125 l-1 -26 -9 25 c-8 23 -8 22 -3 -5 3 -16 12 -61 20 -99 8 -38 13 -81
13 -95 -1 -14 3 -39 10 -54 6 -16 11 -47 10 -70 l-1 -42 -13 40 c-7 22 -16 64
-20 93 -4 28 -11 52 -16 52 -4 0 -16 -36 -26 -80 -10 -44 -22 -79 -28 -77 -5
2 -15 -12 -21 -32 l-12 -36 -1 52 c-1 40 -7 58 -25 78 -25 27 -36 65 -36 125
0 58 -11 100 -27 100 -7 0 -26 9 -41 19 -15 11 -51 25 -80 31 -28 7 -55 16
-58 21 -3 5 -23 9 -44 9 -22 0 -54 9 -72 20 -18 11 -45 20 -59 20 -15 0 -38 9
-52 20 -14 11 -38 20 -53 20 -15 0 -38 10 -51 22 -20 19 -25 20 -34 8 -8 -13
-12 -12 -27 7 -13 16 -32 22 -82 26 -98 9 -153 21 -291 66 -135 44 -159 48
-159 28 0 -18 -63 -77 -82 -77 -17 0 -32 47 -44 138 -4 36 -13 56 -25 62 -17
10 -18 -15 -21 -558 -2 -312 0 -575 5 -585 4 -9 5 -22 2 -27 -3 -5 -7 -89 -9
-185 -2 -157 -1 -180 16 -208 10 -18 30 -56 44 -84 18 -37 31 -53 45 -53 12 0
23 -10 29 -25 5 -14 14 -25 19 -25 5 0 11 -9 14 -20 3 -13 14 -21 34 -22 51
-3 118 4 127 13 6 5 1 45 -14 104 -19 77 -21 99 -12 120 6 14 18 25 26 25 25
0 36 -35 36 -117 0 -100 26 -155 83 -178 20 -8 48 -15 62 -15 13 0 27 -5 30
-11 14 -22 -36 -108 -98 -170 -47 -48 -69 -79 -86 -123 -12 -33 -39 -80 -60
-105 -20 -25 -72 -95 -115 -154 -72 -100 -79 -107 -95 -93 -10 9 -22 16 -28
16 -6 0 -24 15 -41 34 -17 19 -47 44 -69 55 -21 11 -34 20 -28 21 5 0 0 6 -11
14 -15 11 -67 14 -237 14 -119 1 -217 -1 -217 -4 0 -3 10 -24 22 -47 12 -23
25 -66 29 -96 7 -46 14 -60 48 -93 34 -31 48 -38 81 -38 42 0 52 -12 23 -28
-15 -9 -15 -12 -1 -34 12 -19 31 -28 75 -36 32 -6 83 -16 113 -22 127 -24 467
-70 519 -70 31 0 61 -4 67 -10 14 -14 176 -39 274 -42 70 -3 85 0 85 12 0 8
-6 14 -13 12 -15 -3 -11 7 26 56 l25 32 43 -65 c23 -36 44 -70 46 -75 3 -8
101 -25 208 -35 43 -4 153 -21 240 -36 36 -6 78 -11 93 -10 15 0 40 -5 55 -11
23 -10 154 -30 273 -42 20 -2 47 -9 60 -16 13 -7 62 -17 109 -21 82 -8 127
-14 270 -39 36 -7 88 -16 115 -20 28 -4 77 -13 110 -19 33 -5 105 -17 160 -26
55 -9 125 -20 155 -25 30 -5 87 -14 125 -20 39 -5 138 -21 220 -35 126 -21
373 -60 674 -106 35 -5 66 -8 68 -6 1 2 -1 28 -7 57 -5 29 -10 64 -9 79 1 14
8 -10 16 -54 8 -43 15 -81 17 -82 2 -3 118 -22 181 -30 22 -3 141 -7 265 -9
216 -3 223 -2 165 12 -115 29 -194 37 -240 25 -55 -14 -138 -14 -235 0 -41 6
-83 12 -93 12 -21 2 -23 8 -42 137 -8 58 -24 154 -35 214 -12 59 -19 111 -16
114 3 3 6 -1 7 -9 0 -8 9 -52 19 -99 14 -68 19 -78 21 -50 1 19 2 46 1 60 -1
14 8 44 19 68 17 35 20 53 14 105 -15 136 -44 189 -102 185 -22 -1 -33 -7 -33
-18 0 -8 -11 10 -24 41 -34 83 -59 122 -87 136 -114 55 -217 83 -306 83 l-43
0 0 50 c0 28 4 50 9 50 5 0 13 10 17 23 3 12 14 33 24 47 42 60 61 183 43 275
l-6 30 -10 -25 c-10 -24 -11 -25 -14 -3 -3 12 1 31 6 42 14 26 14 67 -1 94 -7
12 -11 34 -9 48 3 38 -69 131 -139 179 -19 13 -49 39 -66 59 l-32 36 77 0 c54
0 87 5 114 19 l37 18 0 145 c0 212 29 367 78 416 l21 20 4 -24 c32 -169 34
-217 13 -329 -8 -41 -17 -86 -19 -100 -3 -14 -10 -44 -16 -68 -7 -23 -9 -47
-6 -52 15 -24 89 -32 173 -20 45 7 89 10 97 6 20 -7 75 25 75 45 0 15 54 49
78 49 6 0 15 -13 20 -29 10 -27 14 -29 88 -35 77 -6 111 -1 167 24 31 15 32
18 12 47 -11 15 -15 58 -17 169 -3 130 -6 154 -25 185 -21 35 -21 36 -3 120
32 148 48 202 70 223 19 19 33 21 183 22 89 1 168 2 175 3 9 1 12 74 12 329
l0 327 -58 19 c-31 10 -88 34 -127 53 -55 28 -77 34 -105 29 -19 -3 -51 -9
-70 -12 -19 -3 -48 -12 -65 -19 -16 -8 -51 -22 -77 -31 -27 -9 -48 -21 -48
-25 0 -5 -9 -9 -19 -9 -24 0 -71 -54 -71 -81 0 -37 -29 -79 -54 -79 -17 0 -23
-5 -22 -17 0 -12 -7 -19 -21 -21 -15 -2 -23 -10 -23 -23 0 -13 -7 -19 -22 -19
-26 0 -98 -64 -98 -86 0 -7 -9 -19 -20 -26 -32 -20 -23 -103 14 -129 10 -8 -1
-29 -15 -29 -5 0 -21 -11 -36 -24 l-25 -24 43 -7 c24 -3 59 -11 76 -16 29 -9
32 -14 27 -37 -4 -15 -9 -29 -11 -32 -3 -3 -63 -5 -134 -5 -127 0 -153 -6
-104 -25 21 -8 24 -14 19 -38 -4 -17 -1 -32 5 -36 20 -13 12 -55 -14 -72 -41
-27 -71 -7 -79 50 -6 37 -3 53 12 79 16 25 20 52 21 131 1 55 5 104 8 110 8
13 26 426 27 626 1 221 15 410 32 438 22 34 61 28 139 -22 69 -44 146 -87 360
-203 61 -33 138 -76 171 -96 34 -20 95 -52 136 -71 41 -19 109 -55 152 -80
l76 -45 0 274 0 275 -212 0 c-210 0 -211 0 -193 -20 10 -11 22 -20 26 -20 4 0
21 -12 36 -26 15 -15 45 -37 66 -50 20 -14 37 -29 37 -34 0 -6 15 -10 34 -10
25 0 38 -6 51 -26 20 -31 15 -39 -17 -28 -13 4 -27 7 -31 6 -5 -1 -20 7 -34
18 -14 11 -36 20 -48 20 -12 0 -28 6 -34 14 -7 8 -33 19 -59 26 -26 6 -69 24
-97 40 -27 16 -78 43 -113 60 l-63 30 -313 0 -313 0 -6 -142 c-4 -79 -12 -159
-18 -178 -6 -19 -17 -107 -24 -195 -28 -349 -65 -697 -78 -728 -8 -18 -19 -44
-25 -59 -11 -27 -14 -28 -83 -28 -39 0 -88 4 -108 9 -20 6 -70 17 -111 26
-115 26 -120 31 -120 122 0 42 6 137 14 212 8 75 20 195 26 266 6 72 20 209
30 305 10 96 21 223 24 283 l7 107 -174 0 -174 0 -7 -112z m-120 -500 c24 -12
44 -25 44 -29 0 -3 9 -9 19 -12 18 -4 19 -9 10 -43 -6 -22 -21 -55 -34 -74
-26 -39 -42 -110 -25 -110 5 0 10 -7 10 -15 0 -9 8 -19 17 -22 15 -6 14 -7 -3
-14 -25 -9 -44 7 -44 37 0 13 -4 25 -10 25 -61 7 -79 -5 -70 -44 4 -18 12 -42
18 -53 6 -12 8 -25 4 -29 -4 -3 -7 -12 -7 -18 0 -7 -17 -13 -40 -14 -34 -1
-36 0 -10 5 24 6 30 13 32 42 3 31 -2 42 -38 78 -29 28 -54 43 -78 47 -20 3
-63 14 -96 25 -74 25 -82 25 -137 0 -48 -21 -103 -16 -103 11 -1 8 -6 24 -13
36 -24 44 -15 63 47 96 41 22 101 22 138 0 34 -19 88 -11 80 12 -6 14 19 30
41 26 8 -1 23 4 35 11 12 8 42 20 67 27 25 7 50 15 55 16 26 8 51 3 91 -17z
m315 -134 c-5 -16 -10 -21 -10 -12 -1 18 10 51 15 45 2 -1 -1 -16 -5 -33z m25
-95 c-10 -71 -54 -204 -55 -164 -1 41 16 157 29 189 17 46 33 31 26 -25z
m-773 -82 c12 -23 13 -34 4 -49 -10 -16 -5 -25 36 -63 53 -49 88 -60 153 -50
30 4 44 11 44 22 0 11 7 14 27 10 15 -3 36 -1 46 4 30 17 54 2 59 -36 5 -45
-26 -109 -69 -142 -32 -25 -36 -26 -88 -14 -74 17 -113 37 -129 69 -8 15 -24
36 -36 47 -22 19 -22 19 -41 -5 -24 -32 -24 -40 1 -40 30 0 51 -39 43 -83 -8
-50 -28 -54 -128 -21 -68 22 -82 30 -74 41 6 7 20 13 30 13 11 0 19 5 19 10 0
6 6 10 14 10 8 0 27 5 43 11 l28 11 -50 14 c-27 7 -69 13 -92 14 -91 1 -98 79
-12 134 14 9 32 28 40 43 22 43 78 91 99 86 10 -3 25 -19 33 -36z m181 22 c-4
-7 0 -9 12 -5 11 3 33 -3 52 -14 30 -19 36 -29 33 -57 -1 -6 11 -14 26 -16 24
-3 23 -4 -8 -6 -26 -1 -42 5 -58 23 -12 13 -43 32 -68 41 -44 17 -44 18 -21
30 30 17 41 18 32 4z m10 -64 c11 -8 16 -15 10 -15 -5 0 -18 7 -28 15 -11 8
-16 15 -10 15 5 0 18 -7 28 -15z m21 -55 c18 -8 18 -9 -5 -9 -14 0 -34 4 -45
9 -18 8 -18 9 5 9 14 0 34 -4 45 -9z m452 -101 c-16 -36 -35 -60 -56 -72 -41
-24 -39 -14 9 40 22 25 46 64 53 87 9 30 13 35 15 20 2 -12 -8 -45 -21 -75z
m-922 44 c-1 -16 -15 -32 -15 -18 0 3 0 12 0 20 0 8 4 15 8 15 5 0 8 -8 7 -17z
m955 -75 c-6 -35 -16 -71 -21 -80 -5 -10 -6 -18 -1 -18 13 0 60 90 72 136 l10
39 -4 -46 c-4 -57 -51 -132 -84 -137 -20 -3 -22 -1 -14 15 13 25 29 80 38 126
3 21 9 36 12 33 2 -3 -1 -34 -8 -68z m-70 -72 c0 -3 -4 -8 -10 -11 -5 -3 -10
-1 -10 4 0 6 5 11 10 11 6 0 10 -2 10 -4z m-820 -16 c18 -12 2 -12 -25 0 -13
6 -15 9 -5 9 8 0 22 -4 30 -9z m-23 -31 c26 -10 56 -18 93 -24 44 -7 80 -19
80 -26 0 -5 9 -9 20 -9 14 0 20 -7 20 -23 0 -44 -121 -73 -214 -51 -21 5 -27
4 -22 -5 4 -6 1 -11 -9 -11 -9 0 -13 5 -10 10 3 6 1 10 -4 10 -6 0 -9 9 -8 20
6 41 20 43 115 21 98 -23 132 -26 117 -12 -6 5 -35 12 -65 15 -57 6 -146 32
-166 48 -15 11 -6 48 12 48 7 0 25 -5 41 -11z m455 -29 c-37 -23 -42 -24 -42
-10 0 6 7 10 15 10 8 0 15 5 15 10 0 6 10 10 23 10 19 0 18 -2 -11 -20z m444
-16 c-4 -9 -9 -15 -11 -12 -3 3 -3 13 1 22 4 9 9 15 11 12 3 -3 3 -13 -1 -22z
m-236 -5 c13 -7 13 -8 0 -9 -12 0 -10 -4 4 -15 11 -8 16 -15 11 -15 -4 0 0 -9
11 -21 15 -16 16 -24 6 -39 -10 -16 -9 -18 5 -13 11 4 14 3 9 -5 -16 -26 -43
-12 -61 31 -10 23 -30 57 -43 76 l-25 33 34 -7 c19 -4 41 -11 49 -16z m-296 3
c3 -5 -10 -26 -29 -47 -31 -36 -35 -38 -60 -27 -38 18 -31 53 15 69 42 14 67
16 74 5z m186 -17 c13 -14 18 -25 12 -25 -9 0 -9 -6 0 -25 14 -32 5 -42 -25
-26 -24 13 -57 63 -57 87 0 23 45 16 70 -11z m-136 -40 c9 -13 16 -31 16 -40
0 -8 7 -15 15 -15 8 0 15 -5 15 -10 0 -6 18 -28 40 -50 26 -25 40 -48 40 -65
0 -27 18 -33 38 -13 9 9 12 9 12 0 0 -7 7 -12 16 -12 10 0 14 -5 10 -15 -7
-19 41 -45 52 -29 4 6 17 13 29 16 18 5 22 0 28 -28 3 -19 10 -34 14 -34 8 0
51 90 51 106 0 5 -5 3 -12 -4 -7 -7 -20 -12 -30 -12 -15 0 -16 3 -7 19 16 24
52 22 59 -4 3 -11 13 -32 23 -47 24 -35 20 -46 -68 -181 -95 -145 -113 -168
-133 -165 -10 2 -16 -3 -14 -9 1 -7 -2 -13 -8 -13 -5 0 -10 5 -10 10 0 6 -6
10 -14 10 -9 0 -12 -7 -9 -19 2 -10 -3 -25 -12 -35 -14 -14 -14 -16 -1 -16 8
0 27 5 41 12 24 11 29 9 52 -18 42 -48 73 -124 73 -180 0 -65 -16 -90 -51 -74
-13 6 -34 25 -44 41 -11 17 -32 33 -48 36 -15 3 -30 10 -33 14 -3 5 -18 9 -33
9 -26 0 -146 -29 -185 -45 -17 -7 -18 -4 -11 33 4 23 3 47 -1 53 -4 7 -9 32
-11 57 -2 25 -8 52 -13 62 -5 9 -6 26 -3 38 4 16 1 22 -10 22 -23 0 -32 77
-17 157 13 69 63 218 81 239 5 6 7 19 3 27 -7 19 24 107 38 107 5 0 7 4 3 10
-3 5 -12 7 -19 4 -8 -3 -16 2 -19 13 -3 10 -5 1 -6 -21 -1 -33 -4 -38 -21 -33
-21 5 -28 -7 -10 -18 15 -9 12 -53 -6 -91 -29 -61 -46 -38 -33 45 13 81 73
171 120 180 4 0 14 -10 23 -24z m1829 4 c17 -8 30 -29 45 -72 24 -69 20 -117
-9 -124 -11 -3 -19 -11 -19 -18 0 -23 -28 -44 -52 -38 -39 10 -78 53 -78 87 0
46 -13 60 -45 52 -57 -14 -95 42 -59 89 14 19 40 24 171 33 12 1 33 -3 46 -9z
m-831 -32 c-8 -9 -5 -24 10 -55 12 -23 19 -44 17 -47 -3 -3 -20 -8 -39 -11
l-33 -7 8 39 c5 21 9 50 11 64 1 14 3 26 3 28 1 1 8 2 17 2 12 0 14 -3 6 -13z
m-667 -38 c-7 -20 -8 -21 -17 -5 -5 9 -7 24 -4 33 10 26 29 -1 21 -28z m-1005
-14 c0 -8 -4 -15 -10 -15 -5 0 -10 7 -10 15 0 8 5 15 10 15 6 0 10 -7 10 -15z
m2050 -55 c0 -5 -5 -10 -11 -10 -5 0 -7 5 -4 10 3 6 8 10 11 10 2 0 4 -4 4
-10z m-1796 -9 c3 -5 -10 -9 -28 -8 -19 0 -33 5 -30 9 7 11 51 10 58 -1z
m1422 -63 c15 -29 16 -58 9 -263 -4 -126 -7 -238 -7 -247 0 -10 -4 -18 -9 -18
-21 0 -129 61 -129 73 0 7 6 37 14 67 7 30 21 98 31 150 25 143 58 270 71 270
2 0 11 -15 20 -32z m-1515 -56 c11 -12 32 -25 48 -28 42 -9 48 -49 13 -92 -15
-19 -34 -44 -42 -58 -8 -13 -27 -26 -42 -30 -16 -3 -35 -15 -43 -27 -8 -11
-18 -17 -22 -13 -4 4 -1 11 6 15 7 5 11 13 7 19 -3 6 -1 14 4 17 6 4 16 17 21
28 5 12 16 33 24 46 17 31 13 39 -30 47 -33 6 -35 9 -35 46 0 22 8 53 17 69
l18 30 18 -23 c10 -13 27 -33 38 -46z m756 32 c-3 -3 -12 -4 -19 -1 -8 3 -5 6
6 6 11 1 17 -2 13 -5z m238 -126 c15 -30 21 -35 32 -26 8 6 13 7 12 2 -3 -22
14 -52 27 -47 8 3 14 -1 15 -8 3 -59 12 -105 22 -111 6 -4 8 -10 5 -13 -10
-10 -27 4 -49 39 -10 17 -19 24 -19 16 -1 -8 -19 30 -40 85 -22 55 -44 101
-48 103 -5 1 -7 15 -4 30 l5 27 11 -30 c7 -17 20 -47 31 -67z m227 -174 l4
-92 -53 26 c-48 24 -52 28 -37 39 10 7 15 13 11 13 -3 0 2 17 11 38 50 107 59
104 64 -24z m-1586 24 c9 -17 21 -27 28 -25 7 3 20 -3 29 -13 15 -18 13 -20
-28 -43 -27 -15 -69 -27 -111 -32 -142 -15 -213 -42 -265 -104 -90 -104 -202
-223 -195 -205 5 10 8 45 7 76 -2 60 12 100 48 132 12 11 21 17 21 14 0 -6 17
9 106 93 17 16 36 29 43 29 6 0 11 5 11 10 0 6 6 10 14 10 8 0 22 7 31 16 43
44 92 68 145 74 78 7 99 2 116 -32z m759 -278 c9 -15 -5 -90 -16 -90 -5 0 -9
23 -9 50 0 47 11 63 25 40z m259 -68 c22 -15 40 -31 40 -37 1 -5 -22 -13 -50
-16 -62 -8 -114 -24 -177 -56 -27 -13 -52 -22 -55 -19 -12 13 -4 67 14 87 22
25 72 49 124 59 56 12 63 11 104 -18z m-429 -12 c7 0 16 6 18 13 3 7 6 5 6 -5
1 -13 -7 -18 -24 -18 -17 0 -25 5 -24 18 0 10 3 12 6 5 2 -7 11 -13 18 -13z
m-1151 -115 c-9 -14 -19 -23 -22 -20 -5 4 26 45 35 45 2 0 -4 -11 -13 -25z
m1367 -196 c-20 -8 -22 -12 -11 -22 10 -9 13 -9 17 1 3 6 9 12 15 12 6 0 6 -6
-2 -15 -14 -17 -36 -20 -45 -5 -12 19 4 40 27 39 l23 0 -24 -10z m-405 -248
c-4 -5 0 -11 6 -14 7 -2 11 -7 8 -10 -9 -10 -33 10 -26 22 4 6 9 11 12 11 3 0
3 -4 0 -9z m-1960 -346 c-4 -14 -3 -25 1 -24 22 4 33 -3 33 -20 0 -11 -6 -22
-12 -24 -10 -4 -9 -8 2 -16 13 -9 13 -11 -2 -11 -32 0 -68 19 -67 37 0 11 3
13 6 6 2 -7 9 -13 14 -13 5 0 4 11 -2 24 -9 19 -8 28 7 44 25 27 27 27 20 -3z
m2414 -25 c0 -5 -2 -10 -4 -10 -3 0 -8 5 -11 10 -3 6 -1 10 4 10 6 0 11 -4 11
-10z m1745 -299 c3 -20 -4 -4 -15 34 -11 39 -19 75 -19 80 1 16 28 -75 34
-114z m12 -63 c-3 -8 -6 -5 -6 6 -1 11 2 17 5 13 3 -3 4 -12 1 -19z m20 -300
c-3 -7 -5 -2 -5 12 0 14 2 19 5 13 2 -7 2 -19 0 -25z"/>
<path d="M3328 2843 c7 -3 16 -2 19 1 4 3 -2 6 -13 5 -11 0 -14 -3 -6 -6z"/>
<path d="M4052 2449 c1 -31 2 -32 11 -11 7 16 7 26 -1 34 -8 8 -10 2 -10 -23z"/>
<path d="M3890 2420 c0 -5 5 -10 10 -10 6 0 10 5 10 10 0 6 -4 10 -10 10 -5 0
-10 -4 -10 -10z"/>
<path d="M3960 2349 c-8 -19 -16 -26 -20 -19 -8 12 -20 -20 -20 -52 0 -44 35
7 55 80 9 32 0 27 -15 -9z"/>
<path d="M3884 2353 c-3 -12 -15 -23 -27 -25 -11 -2 -22 -10 -25 -18 -4 -12
-2 -13 9 -2 7 6 21 12 30 12 24 0 40 22 28 40 -7 12 -10 11 -15 -7z"/>
<path d="M3872 2290 c-15 -25 -16 -70 0 -70 6 0 3 -9 -7 -20 -11 -12 -13 -20
-6 -20 15 0 60 50 61 68 0 6 -4 12 -10 12 -5 0 -10 11 -10 25 0 30 -11 32 -28
5z"/>
<path d="M3880 1925 c0 -8 4 -15 10 -15 5 0 7 7 4 15 -4 8 -8 15 -10 15 -2 0
-4 -7 -4 -15z"/>
<path d="M1586 3904 c-6 -16 13 -64 26 -64 4 0 8 -7 8 -15 0 -20 52 -45 78
-38 22 5 31 23 12 23 -5 0 -20 18 -32 39 -26 46 -83 80 -92 55z"/>
<path d="M2 3314 l3 -258 115 -26 c63 -15 189 -44 280 -65 147 -33 168 -40
192 -67 l26 -30 6 29 c6 28 21 159 32 289 14 148 -18 193 -168 239 -51 15
-172 52 -268 82 -96 30 -185 57 -198 60 l-22 5 2 -258z"/>
<path d="M2660 3389 c0 -24 87 -94 146 -118 32 -13 92 -39 133 -58 40 -19 82
-35 92 -36 11 -1 19 -5 19 -9 0 -4 7 -5 15 -2 9 4 15 0 15 -7 0 -8 11 -2 25
14 37 41 33 45 -112 124 -39 21 -76 33 -100 33 -21 0 -72 13 -113 29 -109 42
-120 44 -120 30z"/>
<path d="M0 2835 c0 -31 2 -33 43 -38 118 -16 186 -28 222 -41 22 -8 53 -17
69 -21 16 -3 59 -20 95 -37 36 -17 80 -34 96 -38 17 -4 38 -11 47 -15 13 -5
19 2 27 32 14 49 14 103 1 103 -6 0 -22 -7 -36 -16 -23 -16 -32 -15 -137 5
-62 13 -175 38 -252 57 -77 19 -148 36 -157 38 -14 3 -18 -3 -18 -29z"/>
<path d="M752 2664 c2 -13 18 -17 72 -20 38 -2 75 -9 82 -15 7 -6 19 -9 26 -7
19 7 -20 25 -88 43 -76 20 -96 19 -92 -1z"/>
<path d="M0 2467 l0 -55 47 -11 c26 -7 131 -30 235 -51 188 -39 224 -50 244
-78 18 -24 32 -5 39 53 10 76 1 105 -31 105 -14 0 -46 7 -72 15 -26 8 -101 21
-167 30 -148 20 -224 31 -264 40 l-31 7 0 -55z"/>
<path d="M713 2348 c-20 -26 -24 -66 -7 -82 8 -9 18 -16 20 -16 16 0 375 -73
404 -82 19 -6 52 -22 72 -35 l36 -25 99 27 c54 15 109 29 122 32 35 6 38 9 51
49 17 51 2 61 -45 30 -32 -22 -49 -26 -109 -26 -39 0 -102 7 -141 16 -98 23
-251 62 -375 95 -124 33 -115 32 -127 17z"/>
<path d="M0 2188 l0 -53 60 -22 c34 -12 67 -20 75 -17 19 8 160 -32 210 -59
22 -11 60 -22 85 -23 25 -1 55 -5 66 -9 20 -6 23 -2 33 45 12 55 14 103 5 112
-3 3 -20 1 -39 -5 -24 -7 -53 -7 -97 1 -74 13 -355 70 -380 78 -16 5 -18 -2
-18 -48z"/>
<path d="M6060 2117 c-30 -11 -56 -24 -58 -29 -2 -4 -17 -8 -33 -8 -16 0 -29
-4 -29 -9 0 -5 -22 -12 -50 -16 -94 -13 -50 -25 90 -25 l140 0 0 55 c0 30 -1
54 -2 54 -2 -1 -28 -11 -58 -22z"/>
<path d="M680 2067 c0 -14 3 -28 8 -30 4 -3 36 -1 72 2 l65 8 -35 15 c-19 9
-52 19 -72 23 -36 7 -38 6 -38 -18z"/>
<path d="M0 1834 l0 -70 203 -37 c139 -26 210 -44 229 -57 45 -33 49 -29 63
72 10 64 0 88 -34 88 -15 0 -50 7 -77 15 -27 8 -65 15 -84 15 -31 0 -148 16
-262 36 l-38 7 0 -69z"/>
<path d="M666 1725 c-4 -20 -14 -39 -22 -42 -21 -8 -17 -22 9 -33 12 -6 109
-23 215 -40 140 -21 210 -37 253 -56 55 -25 64 -26 161 -20 182 12 247 31 233
68 -7 19 -199 32 -229 16 -26 -14 -103 -4 -124 15 -41 37 -218 85 -448 122
-41 6 -42 6 -48 -30z"/>
<path d="M1590 1694 c0 -33 17 -64 35 -64 20 0 19 22 -2 59 -22 38 -33 39 -33
5z"/>
<path d="M1617 1602 c-16 -2 -27 -8 -24 -15 5 -15 28 -19 46 -8 21 14 9 26
-22 23z"/>
<path d="M0 1551 c0 -22 5 -31 16 -31 24 0 149 -28 225 -51 37 -11 74 -17 83
-13 8 3 36 -4 62 -16 55 -27 65 -21 72 49 5 54 1 58 -42 41 -19 -7 -75 -3
-204 16 -97 13 -185 27 -194 30 -15 4 -18 -1 -18 -25z"/>
<path d="M610 1459 c0 -21 68 -39 124 -33 35 4 56 3 60 -5 4 -6 19 -11 34 -11
25 1 25 2 8 12 -22 13 -170 47 -203 48 -13 0 -23 -5 -23 -11z"/>
<path d="M5071 1341 c-47 -8 -50 -28 -7 -46 45 -19 284 -82 531 -139 61 -14
144 -35 185 -46 41 -12 125 -34 185 -50 61 -17 120 -33 133 -36 l22 -6 0 156
0 156 -77 -1 c-43 0 -100 -3 -128 -6 l-50 -6 35 -28 34 -29 -84 0 c-90 0 -220
18 -333 45 -78 18 -116 23 -247 30 -52 3 -111 7 -130 8 -19 2 -50 1 -69 -2z"/>
<path d="M0 1177 c0 -98 -10 -89 120 -111 188 -31 261 -39 270 -30 12 12 29
170 19 185 -3 6 -15 8 -26 5 -11 -4 -53 1 -94 9 -41 9 -122 19 -181 22 l-108
6 0 -86z"/>
<path d="M559 1103 c-18 -47 -22 -90 -9 -98 6 -4 48 -8 93 -10 78 -2 229 -28
272 -45 27 -12 85 -23 85 -16 0 2 -5 17 -11 33 -15 38 -18 72 -8 79 27 16 -3
23 -104 23 -123 0 -186 11 -250 41 -52 26 -55 25 -68 -7z"/>
<path d="M0 915 c0 -50 -12 -44 140 -65 156 -21 218 -31 320 -51 58 -12 148
-25 200 -30 52 -4 131 -15 175 -23 93 -17 175 -20 175 -6 0 17 -73 59 -120 69
-25 5 -88 12 -141 14 -69 4 -106 10 -135 25 -24 12 -78 24 -139 31 -55 6 -183
26 -285 46 -102 19 -186 35 -187 35 -2 0 -3 -20 -3 -45z"/>
<path d="M5931 461 c-14 -26 6 -42 38 -30 15 6 21 14 17 25 -3 9 -6 18 -6 20
0 13 -41 1 -49 -15z"/>
<path d="M5836 184 c-9 -22 -8 -24 9 -24 8 0 15 6 15 14 0 22 -17 28 -24 10z"/>
<path d="M0 10 c0 -6 27 -10 62 -10 74 0 73 5 -4 14 -37 4 -58 2 -58 -4z"/>
</g>
</svg>
